<svg id="Capa_1" enable-background="new 0 0 510 510" height="512" viewBox="0 0 510 510" width="512" xmlns="http://www.w3.org/2000/svg"><g id="XMLID_431_"><path id="XMLID_597_" d="m240 60.571 9.5-30.286-9.5-29.836c-57.494 3.314-111.389 25.636-154.388 63.95l10.686 28.101 31.898 14.483 51.804-16.983z" fill="#ffd92e"/><path id="XMLID_595_" d="m128.196 403.017-29.53 12.983-13.055 29.602c42.998 38.311 96.891 60.636 154.389 63.95l9.666-29.218-9.666-30.905-54.334-29.429z" fill="#ffd92e"/><path id="XMLID_587_" d="m403.017 381.804 14.65 28.863 27.935 13.722c38.312-42.997 60.636-96.891 63.95-154.389l-29.885-9.667-30.238 9.667-29.429 51.333z" fill="#fcbe00"/><path id="XMLID_598_" d="m60.571 270-30.571-11.667-29.551 11.667c3.313 57.494 25.636 111.389 63.95 154.389l25.601-10.687 16.983-31.898-16.983-58.804z" fill="#ffd92e"/><g fill="#fcbe00"><path id="XMLID_586_" d="m270 60.571 54.666 28.095 57.137 18.317 29.863-13.983 12.722-28.602c-42.997-38.311-96.89-60.636-154.388-63.949l-7.5 29.218z"/><path id="XMLID_585_" d="m403.017 128.196 15.65 57.137 30.762 54.667 28.571 15 31.551-15c-3.314-57.494-25.636-111.389-63.95-154.389l-28.269 10.686z"/><path id="XMLID_584_" d="m270 449.429-7.5 30.061 7.5 30.062c57.494-3.314 111.389-25.636 154.389-63.95l-12.056-29.602-30.529-12.983-57.804 18.316z"/></g><path id="XMLID_607_" d="m106.983 128.196-10.685-29.196-31.899-13.388c-38.312 42.997-60.637 96.89-63.95 154.388l27.218 11.667 32.904-11.667 29.429-54z" fill="#ffd92e"/><path id="XMLID_417_" d="m85.612 64.399c5.154 5.154 37.396 37.396 42.585 42.584l-3.697 15.017-17.517 6.196c-5.154-5.154-37.396-37.397-42.584-42.585 6.891-7.733 13.439-14.285 21.213-21.212zm154.388 385.03v30.061 30.062c4.976.287 9.975.449 15 .449v-30-30l-7.506-9.167zm-239.551-209.429c-.287 4.976-.449 9.975-.449 15 0 5.024.162 10.023.449 15h60.123l14.428-15-14.429-15c-7.274 0-52.8 0-60.122 0zm106.534 141.804c-5.154 5.154-37.397 37.397-42.585 42.585 6.892 7.734 13.439 14.286 21.213 21.213 5.154-5.154 37.397-37.397 42.585-42.585l-3.53-16.017zm133.017-381.355v60.123l7.494 8.929 7.506-9.501c0-7.259 0-52.693 0-60-5.024 0-10.023.162-15 .449z" fill="#ffea94"/><path id="XMLID_424_" d="m509.551 240c.287 4.976.449 9.975.449 15 0 5.024-.162 10.023-.449 15-7.274 0-52.801 0-60.123 0l-10.928-15 10.929-15zm-127.747 163.017 42.585 42.585c7.749-6.904 14.299-13.454 21.213-21.213-5.154-5.154-37.397-37.397-42.585-42.585l-17.017 2.446zm-111.804-402.568c-4.976-.287-9.976-.449-15-.449v60l7.506 10.25 7.494-9.679c0-7.274 0-52.8 0-60.122zm0 448.98-7.494-8.596-7.506 9.167v30 30c5.024 0 10.023-.162 15-.449v-30.061zm133.017-321.233c5.154-5.154 37.397-37.397 42.585-42.585-6.759-7.585-13.289-14.152-21.213-21.213-5.154 5.154-37.397 37.397-42.585 42.585l2.446 17.017z" fill="#ffd92e"/><path id="XMLID_601_" d="m60 255c0 107.521 87.474 195 195 195l15-195-15-195c-107.521 0-195 87.474-195 195z" fill="#fcbe00"/><path id="XMLID_600_" d="m450 255c0-107.52-87.474-195-195-195v195 195c107.52 0 195-87.474 195-195z" fill="#ff9000"/><path id="XMLID_599_" d="m90 255c0 90.979 74.016 165 165 165l15-165-15-165c-90.979 0-165 74.016-165 165z" fill="#ffd92e"/><path id="XMLID_484_" d="m255 315c-6.762 0-12.572 0-19.334 0-22.423 0-40.666-18.243-40.666-40.667 0-13.523 0-25.143 0-38.667 0-22.423 18.242-40.666 40.666-40.666h19.334l15 15-15 15c-6.762 0-12.572 0-19.334 0-5.881 0-10.666 4.785-10.666 10.667v38.667c0 5.881 4.785 10.667 10.666 10.667h19.334l15 15z" fill="#ff9000"/><path id="XMLID_477_" d="m165 195c-10.492 0-19.508 0-30 0v120h30c0-14.518 0-105.386 0-120z" fill="#ff9000"/><path id="XMLID_589_" d="m195 345v30h60l15-15-15-15c-7.259 0-52.693 0-60 0z" fill="#ff9000"/><path id="XMLID_596_" d="m420 255c0-90.979-74.016-165-165-165v165 165c90.979 0 165-74.016 165-165z" fill="#fcbe00"/><path id="XMLID_592_" d="m195 135v30h60l15-15-15-15c-7.259 0-52.693 0-60 0z" fill="#ff9000"/><path id="XMLID_511_" d="m330 195c-24.813 0-45 20.186-45 45v30c0 24.813 20.185 45 45 45 24.813 0 45-20.185 45-45 0-10.492 0-19.508 0-30 0-24.812-20.186-45-45-45zm15 75c0 8.272-6.729 15-15 15-8.272 0-15-6.728-15-15 0-10.492 0-19.508 0-30 0-8.271 6.728-15 15-15 8.27 0 15 6.729 15 15zm-30-105c-7.259 0-52.693 0-60 0 0-10.492 0-19.508 0-30h60zm0 210c-7.259 0-52.693 0-60 0 0-10.492 0-19.508 0-30h60z" fill="#ff4a4a"/></g></svg>