<svg height="511pt" viewBox="-124 0 511 511.99767" width="511pt" xmlns="http://www.w3.org/2000/svg"><path d="m194.054688 335.730469v137.351562c0 21.496094-17.433594 38.914063-38.925782 38.914063h-46.726562c-21.492188 0-38.921875-17.421875-38.921875-38.914063v-137.351562zm0 0" fill="#356b93"/><path d="m194.054688 390.96875v82.113281c0 21.492188-17.421876 38.914063-38.914063 38.914063h-15.59375c-21.496094 0-38.921875-17.425782-38.921875-38.921875v-58.183594c0-13.210937 10.707031-23.921875 23.917969-23.921875zm0 0" fill="#5881a5"/><path d="m199.617188 241.5625c-45.230469 7.960938-90.464844 7.960938-135.699219 0-20.511719-3.609375-36.34375-20.0625-39.5-40.648438-7.886719-51.429687-7.886719-102.863281 0-154.296874 3.15625-20.585938 18.988281-37.039063 39.5-40.648438 45.234375-7.957031 90.46875-7.957031 135.699219 0 20.511718 3.609375 36.347656 20.0625 39.503906 40.648438 7.882812 51.433593 7.882812 102.867187 0 154.296874-3.15625 20.585938-18.992188 37.039063-39.503906 40.648438zm0 0" fill="#394d63"/><path d="m113.277344 247.078125c-16.445313-.78125-32.902344-2.621094-49.347656-5.519531-20.515626-3.605469-36.34375-20.050782-39.511719-40.640625-7.882813-51.433594-7.882813-102.867188 0-154.300781 3.167969-20.589844 18.996093-37.046876 39.511719-40.652344 16.445312-2.898438 32.902343-4.730469 49.347656-5.511719-19.652344 5.121094-34.503906 21.636719-37.632813 41.96875-8.3125 54.230469-8.3125 108.460937 0 162.6875 3.125 20.332031 17.980469 36.851563 37.632813 41.96875zm0 0" fill="#20303f"/><path d="m263.035156 266.0625v56.769531c0 21.253907-17.226562 38.492188-38.484375 38.492188h-185.570312c-21.242188 0-38.480469-17.238281-38.480469-38.492188v-56.769531c0-21.253906 17.234375-38.492188 38.480469-38.492188h185.570312c21.257813 0 38.484375 17.238282 38.484375 38.492188zm0 0" fill="#ed2929"/><path d="m263.035156 266.0625v56.769531c0 21.253907-17.226562 38.492188-38.484375 38.492188h-130.652343c-21.242188 0-38.480469-17.238281-38.480469-38.492188v-56.769531c0-21.253906 17.234375-38.492188 38.480469-38.492188h130.652343c21.257813 0 38.484375 17.238282 38.484375 38.492188zm0 0" fill="#ff5a5a"/><g fill="#e6e6e6"><path d="m67.074219 259.726562c-3.796875 0-6.347657 1.859376-6.347657 4.628907v35.085937l-17.152343-33.453125c-2.117188-4.0625-4.117188-6.261719-8.613281-6.261719-3.855469 0-6.347657 1.851563-6.347657 4.71875v59.792969c0 3.097657 3.191407 4.71875 6.347657 4.71875 3.738281 0 6.347656-1.941406 6.347656-4.71875v-35.222656l18.691406 35.582031.007812.015625c1.484376 2.761719 4.058594 4.34375 7.066407 4.34375 3.734375 0 6.347656-1.941406 6.347656-4.71875v-59.882812c0-2.8125-2.492187-4.628907-6.347656-4.628907zm0 0"/><path d="m124.785156 271.335938c2.734375 0 4.71875-2.476563 4.71875-5.894532 0-2.839844-1.617187-5.714844-4.71875-5.714844h-32.203125c-2.8125 0-5.804687 1.652344-5.804687 4.71875v59.792969c0 3.066407 2.992187 4.71875 5.804687 4.71875h32.203125c3.101563 0 4.71875-2.875 4.71875-5.714843 0-3.414063-1.984375-5.894532-4.71875-5.894532h-25.3125v-17.699218h12.378906c3.0625 0 4.71875-2.710938 4.71875-5.261719 0-3.152344-1.984374-5.445313-4.71875-5.445313h-12.378906v-17.605468zm0 0"/><path d="m185.542969 259.804688c-2.46875 0-4.328125 1.199218-4.855469 3.132812l-3.957031 42.699219-5.917969-23.535157c-.566406-2.515624-2.925781-4.015624-6.308594-4.015624-3.382812 0-5.738281 1.5-6.296875 3.976562l-5.929687 23.574219-3.910156-42.433594-.046876-.265625c-.527343-1.933594-2.386718-3.132812-4.855468-3.132812-3.554688 0-7.519532 2.238281-7.519532 5.449218 0 .378906 0 .773438.117188 1.203125l6.03125 57.019531c.234375 2.136719 1.582031 3.984376 3.503906 4.816407 2.042969.890625 4.421875 1.207031 5.96875 1.207031 3.222656 0 6.8125-1.367188 7.574219-4.425781l5.363281-21.335938 5.363282 21.332031c.761718 3.0625 4.355468 4.429688 7.578124 4.429688 1.542969 0 3.925782-.316406 5.957032-1.207031 1.929687-.835938 3.277344-2.679688 3.515625-4.824219l6.027343-57.011719c.117188-.433593.117188-.824219.117188-1.203125 0-3.210937-3.964844-5.449218-7.519531-5.449218zm0 0"/><path d="m221.734375 286.40625c-6.535156-2.640625-10.542969-4.488281-10.542969-8.933594 0-5.519531 5.304688-6.679687 9.753906-6.679687 4.542969 0 6.964844 1.246093 8.914063 2.25 1.242187.636719 2.3125 1.1875 3.570313 1.1875 3.609374 0 5.535156-3.894531 5.535156-6.707031 0-6.367188-11.328125-8.066407-18.019532-8.066407-10.851562 0-22.449218 4.96875-22.449218 18.917969 0 12.710938 9.203125 16.59375 17.320312 20.019531 6.484375 2.734375 12.082032 5.09375 12.082032 11.460938 0 7.253906-6.886719 8.035156-9.84375 8.035156-5.800782 0-8.617188-2.550781-10.882813-4.601563-1.503906-1.367187-2.804687-2.542968-4.585937-2.542968-3.167969 0-5.714844 3.667968-5.714844 6.707031 0 5.773437 9.214844 12.230469 21.542968 12.230469 13.679688 0 22.179688-7.980469 22.179688-20.824219-.003906-14.828125-10.457031-19.054687-18.859375-22.453125zm0 0"/></g><path d="m196.257812 43.582031c-3.1875 0-6.09375-2.003906-7.246093-4.972656-1.214844-3.128906-.21875-6.816406 2.433593-8.890625 5.554688-4.347656 13.804688.664062 12.425782 7.617188-.710938 3.585937-3.964844 6.246093-7.613282 6.246093zm0 0" fill="#20303f"/><path d="m212.445312 64.84375c-7.132812 0-10.4375-9.273438-4.925781-13.777344 2.679688-2.183594 6.570313-2.324218 9.402344-.34375 2.460937 1.722656 3.714844 4.839844 3.152344 7.789063-.6875 3.613281-3.933594 6.332031-7.628907 6.332031zm0 0" fill="#20303f"/><path d="m186.128906 68.882812c-6.949218 0-10.371094-8.859374-5.214844-13.515624 2.566407-2.320313 6.445313-2.648438 9.367188-.804688 2.6875 1.695312 4.085938 4.953125 3.460938 8.074219-.71875 3.585937-3.945313 6.246093-7.613282 6.246093zm0 0" fill="#20303f"/></svg>