<svg id="Capa_1" enable-background="new 0 0 484.371 484.371" height="512" viewBox="0 0 484.371 484.371" width="512" xmlns="http://www.w3.org/2000/svg"><g><path d="m19.794 42.876h444.783c10.932 0 19.794 8.862 19.794 19.794v398.071c0 10.932-8.862 19.794-19.794 19.794h-444.783c-10.932 0-19.794-8.862-19.794-19.794v-398.071c0-10.932 8.862-19.794 19.794-19.794z" fill="#eeefee"/><path d="m484.371 62.67v84.653h-484.371v-84.653c-.013-10.919 8.828-19.781 19.747-19.794h.047 444.795c10.919-.007 19.776 8.84 19.782 19.759z" fill="#ef5261"/><circle cx="390.232" cy="95.099" fill="#eeefee" r="26.581"/><path d="m390.229 3.837c8.063 0 14.599 6.538 14.599 14.602v74.995c0 8.064-6.536 14.602-14.599 14.602-8.063 0-14.599-6.538-14.599-14.602v-74.995c0-8.065 6.536-14.602 14.599-14.602z" fill="#575b6d"/><circle cx="94.139" cy="95.099" fill="#eeefee" r="26.581"/><g fill="#575b6d"><path d="m94.136 3.837c8.063 0 14.599 6.538 14.599 14.602v74.995c0 8.064-6.536 14.602-14.599 14.602-8.063 0-14.599-6.538-14.599-14.602v-74.995c0-8.065 6.537-14.602 14.599-14.602z"/><path d="m230.047 415.629h-132.464c.108-12.526 4.061-24.716 11.324-34.922 11.91-15.497 25.885-29.29 41.538-40.994 15.145-11.449 29.025-24.483 41.402-38.88 7.36-9.393 11.305-21.011 11.188-32.943.527-9.609-2.928-19.01-9.552-25.991-7.304-6.672-17.003-10.094-26.877-9.481-9.455-.205-18.631 3.212-25.648 9.552-7.562 7.409-11.879 17.514-12.003 28.099h-26.581c.744-16.017 7.713-31.11 19.422-42.063 12.536-10.891 28.783-16.541 45.371-15.777 19.918 0 35.288 5.344 46.11 16.032 10.766 10.546 16.648 25.103 16.232 40.167.233 13.8-3.975 27.31-12.003 38.537-8.002 11.141-23.894 26.625-47.675 46.452-23.781 19.828-35.901 32.652-36.357 38.472h96.573z"/><path d="m386.788 367.877h-27.013v47.746h-25.778v-47.746h-85.403v-22.641l90.967-132.186h20.19v132.186h27.036v22.641zm-52.796-22.647v-91.67l-61.385 91.676z"/></g></g></svg>